<?xml version="1.0" standalone="no"?>
<!DOCTYPE svg PUBLIC "-//W3C//DTD SVG 20010904//EN"
 "http://www.w3.org/TR/2001/REC-SVG-20010904/DTD/svg10.dtd">
<svg version="1.0" xmlns="http://www.w3.org/2000/svg"
 width="1024.000000pt" height="1024.000000pt" viewBox="0 0 1024.000000 1024.000000"
 preserveAspectRatio="xMidYMid meet">

<g transform="translate(0.000000,1024.000000) scale(0.100000,-0.100000)"
fill="#000000" stroke="none">
<path d="M4849 8553 c-151 -153 -321 -326 -378 -384 l-103 -107 36 -49 c20
-28 48 -77 63 -109 25 -52 28 -71 28 -159 0 -90 -3 -106 -28 -158 -40 -80
-112 -151 -194 -190 -62 -29 -77 -32 -163 -32 -85 0 -101 3 -155 29 -79 39
-149 110 -188 194 -28 59 -32 77 -32 152 0 71 5 96 28 150 16 36 29 71 30 79
2 14 -140 106 -638 416 -110 68 -208 127 -218 130 -16 7 -17 -67 -17 -1406 l0
-1412 108 104 c213 208 415 351 682 484 467 233 913 325 1505 312 425 -9 748
-70 1085 -204 358 -142 664 -340 936 -605 l111 -108 7 61 c11 109 7 2779 -4
2779 -9 0 -424 -256 -813 -500 -51 -32 -66 -47 -61 -59 56 -133 71 -213 54
-289 -18 -80 -54 -147 -108 -200 -139 -135 -353 -149 -506 -33 -95 71 -155
189 -156 302 0 105 29 184 113 302 l18 25 -377 381 c-207 210 -380 381 -383
381 -4 0 -131 -125 -282 -277z m434 -408 l148 -154 -17 -83 c-23 -115 -15
-264 21 -378 93 -295 349 -491 661 -508 224 -11 410 61 569 222 136 137 196
283 200 484 l2 114 66 39 67 38 0 -744 c0 -410 -3 -745 -7 -745 -3 0 -40 22
-82 49 -100 64 -301 169 -421 219 -828 349 -1891 348 -2735 -3 -123 -51 -308
-144 -406 -205 -45 -28 -82 -49 -83 -48 0 2 0 334 2 740 l2 736 70 -40 70 -41
0 -100 c0 -117 18 -201 65 -302 206 -446 799 -554 1163 -212 107 101 166 200
201 338 28 111 34 228 17 339 l-15 94 31 36 c66 74 252 270 258 270 3 0 72
-70 153 -155z"/>
<path d="M3580 5390 l0 -630 175 0 175 0 0 155 0 156 77 -3 77 -3 84 -152 84
-153 209 0 c115 0 209 2 209 5 0 3 -46 83 -102 178 -57 94 -105 175 -106 180
-2 4 26 35 62 68 240 220 186 615 -105 773 -93 51 -136 56 -501 56 l-338 0 0
-630z m638 280 c94 -57 96 -196 3 -257 -31 -21 -46 -23 -162 -23 l-129 0 0
150 0 150 128 0 c109 0 132 -3 160 -20z"/>
<path d="M5630 5613 c0 -444 5 -495 55 -593 35 -69 114 -152 181 -190 75 -43
189 -70 298 -70 267 1 447 128 507 359 17 67 19 113 19 488 l0 413 -530 0
-530 0 0 -407z m600 -131 c74 -37 105 -162 58 -232 -37 -54 -72 -74 -128 -74
-87 0 -145 60 -145 152 0 130 109 208 215 154z"/>
<path d="M3128 5718 c-63 -62 -135 -138 -161 -169 l-47 -56 0 -1119 0 -1119
368 -275 c202 -151 548 -409 769 -572 l403 -298 260 0 260 0 0 380 0 381 -142
-2 -143 -1 -3 80 -3 81 -137 107 c-75 59 -140 110 -144 113 -4 4 -1 29 8 56 8
28 46 169 85 315 39 146 86 322 106 393 l36 127 485 -2 486 -3 111 -410 c62
-225 115 -424 118 -442 6 -31 3 -34 -143 -143 l-150 -112 0 -79 0 -79 -140 0
-140 0 0 -380 0 -380 265 0 265 0 102 75 c57 41 353 260 658 486 305 226 610
453 678 502 l122 91 -2 1113 -3 1113 -175 173 -175 172 -5 -897 -5 -896 -389
-272 c-213 -149 -390 -269 -393 -267 -2 3 -35 94 -74 203 -38 110 -115 330
-172 489 l-102 290 -38 0 c-20 -1 -352 -2 -737 -3 l-700 -2 -11 -27 c-26 -65
-289 -804 -310 -871 -13 -40 -28 -71 -34 -69 -10 4 -139 93 -557 385 l-208
144 0 894 c0 772 -2 894 -14 894 -8 0 -66 -51 -128 -112z"/>
</g>
</svg>
